<?xml version="1.0" standalone="no"?>
<!DOCTYPE svg PUBLIC "-//W3C//DTD SVG 1.1//EN" "http://www.w3.org/Graphics/SVG/1.1/DTD/svg11.dtd" >
<svg xmlns="http://www.w3.org/2000/svg">
<metadata>
This is a custom SVG webfont generated by Font Squirrel.
Copyright   : Copyright c 2012 by Brian J Bonislawsky DBA Astigmatic AOETI astigmaastigmaticcom with ReservedFont Name Risque
Designer    : Astigmatic AOETI
Foundry     : Astigmatic AOETI
Foundry URL : httpwwwastigmaticcom
</metadata>
<defs>
<font id="RisqueRegular" horiz-adv-x="888" >
<font-face units-per-em="2048" ascent="1638" descent="-410" />
<missing-glyph horiz-adv-x="532" />
<glyph unicode=" "  horiz-adv-x="532" />
<glyph unicode="&#x09;" horiz-adv-x="532" />
<glyph unicode="&#xa0;" horiz-adv-x="532" />
<glyph unicode="!" horiz-adv-x="552" d="M94 57q0 61 50.5 94t101.5 33q49 0 100 -33t51 -94q0 -57 -51 -88.5t-100 -31.5q-51 0 -101.5 31.5t-50.5 88.5zM190 303l5 1090l264 -33l-150 -1063z" />
<glyph unicode="&#x22;" horiz-adv-x="655" d="M66 1430l258 14l-97 -529l-67 7zM352 1368l258 35l-96 -488l-68 7z" />
<glyph unicode="#" horiz-adv-x="1044" d="M66 492l10 108l190 8l6 150h-151l10 102l145 10l13 287l213 39l-53 -311l129 10l40 350l254 -35l-79 -299l188 17l-39 -166l-190 -2l-37 -135l174 8l-43 -180l-176 8l-68 -250l-102 14l28 242l-149 8l-43 -260l-84 4l10 262zM403 612l142 6l16 142h-133z" />
<glyph unicode="$" horiz-adv-x="813" d="M63 190l39 398q53 -115 143.5 -186.5t196.5 -71.5q63 0 101.5 26.5t38.5 75.5q0 47 -51.5 77t-123 49.5t-144.5 47t-124 90t-51 154.5q0 70 26.5 120t70.5 75.5t84 37t83 13.5l-55 463l178 -23l-53 -440q113 -12 188 -74l133 164l-59 -402q-23 92 -97.5 160t-178.5 68 q-68 0 -112 -31t-44 -92q0 -55 50 -87t123 -50.5t145.5 -41t122.5 -76.5t50 -142q0 -121 -85 -184.5t-193 -63.5q-33 0 -49 2l39 -441l-146 33l49 420q-96 27 -174 94z" />
<glyph unicode="%" horiz-adv-x="1318" d="M66 997q0 160 92 229.5t215 69.5q111 0 194.5 -68.5t83.5 -203.5q0 -127 -80 -217t-227 -92q-109 4 -193.5 73.5t-84.5 208.5zM217 963q0 -94 36 -143.5t99 -49.5q68 0 106 82t38 195q0 195 -123 194q-72 0 -114 -69.5t-42 -208.5zM301 219l617 1022l147 -98l-709 -963z M668 362q0 160 91 230t216 70q111 0 194.5 -69t83.5 -204q0 -127 -80 -217t-227 -92q-109 4 -193.5 73.5t-84.5 208.5zM819 328q0 -193 135 -193q68 0 106 82t38 195q0 195 -123 194q-72 0 -114 -69.5t-42 -208.5z" />
<glyph unicode="&#x26;" horiz-adv-x="1243" d="M31 301q0 72 23.5 133.5t55 102.5t89 84t96.5 65.5t108 56.5q-73 179 -73 318q0 137 89 217t220 80q113 0 173 -60.5t60 -156.5q0 -94 -54 -191.5t-150 -167.5q-6 -4 -15.5 -12t-11.5 -8q80 -178 223 -363q63 111 64 226q0 102 -41 172q2 0 19.5 -9.5t44 -30t51 -48 t43 -73.5t18.5 -97q-4 -119 -105 -254l101 -109l205 39l-260 -235q-80 61 -183 163q-197 -152 -438 -151q-178 0 -265 82t-87 227zM287 352q0 -90 60.5 -147.5t150.5 -57.5q113 0 227 95q-141 160 -223 305q-14 23 -43 76q-172 -141 -172 -271zM569 1083q-6 -104 33 -223 q139 117 139 273q0 123 -86 122q-27 0 -44 -12t-25 -40.5t-11.5 -52.5t-5.5 -67z" />
<glyph unicode="'" horiz-adv-x="370" d="M66 1430l258 14l-97 -529l-67 7z" />
<glyph unicode="(" horiz-adv-x="604" d="M61 696q0 141 31 265t80 211.5t108.5 160t120 116.5t109.5 74.5t80 43.5l31 12q-12 -14 -34 -40t-77 -115t-96 -184t-76 -243.5t-35 -300.5q0 -147 33 -289.5t80 -240.5t93 -174t79 -113l33 -37q-12 2 -32 9.5t-78 36t-111.5 65.5t-118 107.5t-110.5 154.5t-78 210 t-32 271z" />
<glyph unicode=")" horiz-adv-x="604" d="M-12 -158q12 12 33.5 38t77 111t96.5 177t75.5 236.5t34.5 291.5q0 152 -32.5 298.5t-79 247.5t-93.5 180t-80 118l-32 39q23 -8 60.5 -25.5t134 -88t170 -161t134 -253t60.5 -355.5q0 -145 -31 -271t-80 -211t-108.5 -153.5t-120 -107.5t-109.5 -65.5t-80 -35.5z" />
<glyph unicode="*" horiz-adv-x="880" d="M72 942l280 88l-268 74l127 219l182 -190l-88 284l283 15l-99 -314l216 205l116 -184l-282 -88l270 -74l-127 -219l-184 188l90 -282l-283 -15l98 312l-215 -203z" />
<glyph unicode="+" horiz-adv-x="819" d="M61 616l11 150l233 6l-4 283l225 -19l-14 -258l244 8l-27 -213l-227 15l-17 -297l-170 10l-6 299z" />
<glyph unicode="," horiz-adv-x="471" d="M68 68q0 55 54 85.5t107.5 30.5t103.5 -30.5t50 -85.5q0 -94 -67.5 -154.5t-174.5 -87.5q4 6 14.5 22.5t14.5 22.5t9 20.5t7 28.5t2 33q-45 10 -82.5 40t-37.5 75z" />
<glyph unicode="-" d="M111 616l10 150l657 55v-248z" />
<glyph unicode="." horiz-adv-x="454" d="M68 57q0 61 50 94t101 33q49 0 100.5 -33t51.5 -94q0 -57 -51.5 -88.5t-100.5 -31.5q-51 0 -101 31.5t-50 88.5z" />
<glyph unicode="/" horiz-adv-x="966" d="M31 14l659 1364l252 -59l-823 -1354z" />
<glyph unicode="0" horiz-adv-x="1243" d="M84 666q0 170 33 301t86 213t128 135t153.5 73.5t168.5 20.5q223 0 366.5 -166t143.5 -514q0 -121 -17.5 -228.5t-58 -209t-104 -173t-163 -115.5t-224.5 -46q-213 6 -362.5 180t-149.5 529zM330 573q0 -240 75.5 -380t204.5 -140q94 0 165 111.5t102.5 274.5t31.5 345 q0 252 -69.5 389.5t-186.5 137.5q-147 0 -235 -191.5t-88 -546.5z" />
<glyph unicode="1" horiz-adv-x="673" d="M6 8l209 125l90 1051l-262 127l408 67v-1245l192 -143z" />
<glyph unicode="2" horiz-adv-x="1177" d="M53 -8q86 383 451 549q317 143 317 377q0 141 -83 206.5t-201 65.5q-121 0 -216.5 -86t-138.5 -207l-129 520l158 -241q45 68 101.5 113.5t110.5 64t90 24.5t67 6q211 0 353 -116.5t142 -319.5q0 -63 -11 -115.5t-27.5 -90t-50.5 -71.5t-60.5 -55.5t-77.5 -47t-83 -39 t-95.5 -38t-98.5 -38.5q-98 -41 -153.5 -116t-77.5 -220l569 119l131 247l11 -458z" />
<glyph unicode="3" horiz-adv-x="1181" d="M59 1505l109 -164h950l-602 -477q260 -4 427 -110.5t167 -315.5q0 -104 -36 -188t-91 -137.5t-127 -90t-140.5 -52t-133.5 -15.5q-68 0 -144 18.5t-155.5 58.5t-131 118.5t-51.5 183.5q0 182 234 252q-68 -109 -68 -228q0 -121 71 -201.5t206 -80.5q162 0 234.5 84 t72.5 215q0 100 -47 176t-125 118t-163 61.5t-175 19.5q-37 0 -55 -2l323 393l-383 76l-84 -205z" />
<glyph unicode="4" horiz-adv-x="1267" d="M45 444l213 748l-174 104l635 78l-213 -123l-264 -618l583 -23l-16 586l-166 84l610 61l-198 -131l-82 -1030l264 -123l-643 -73l242 209l-9 296z" />
<glyph unicode="5" horiz-adv-x="1193" d="M55 360q0 29 9.5 63t33 75t75.5 67.5t124 26.5h14q-68 -96 -67 -227q0 -121 65.5 -209t192.5 -88q92 0 160.5 35.5t105.5 95t54.5 124t17.5 136.5q0 156 -103.5 257t-271.5 101q-263 0 -361 -78l76 566l789 57l133 147l-90 -553l-54 185l-659 55l25 -264 q49 14 116.5 21.5t109.5 8.5l42 1q203 0 350.5 -133.5t147.5 -352.5q0 -115 -34 -207t-88.5 -148t-129 -94t-151.5 -53.5t-161 -15.5q-221 0 -346 119t-125 282z" />
<glyph unicode="6" horiz-adv-x="1222" d="M76 596q0 147 40 287.5t115.5 256t198.5 186.5t275 71q207 0 309 -87t102 -210q0 -61 -25.5 -115.5t-70.5 -81.5q-6 176 -101.5 279.5t-216.5 103.5q-180 0 -277 -159.5t-103 -432.5q160 188 378 189q195 0 316 -136.5t121 -322.5q0 -217 -136.5 -351t-384.5 -134 q-223 0 -381.5 184t-158.5 473zM324 551q16 -264 105 -382t206 -118q119 4 187.5 96.5t68.5 270.5q0 125 -64.5 221t-187.5 96q-186 0 -315 -184z" />
<glyph unicode="7" horiz-adv-x="1044" d="M35 1481l143 -170l860 20l-528 -1171l260 -140l-633 -28l207 143l332 983l-469 76l-92 -295z" />
<glyph unicode="8" horiz-adv-x="1200" d="M57 377q0 121 72 230.5t205 148.5q-74 45 -112 121.5t-38 148.5q0 180 123 277.5t303 97.5q176 0 301 -103.5t125 -271.5q0 -78 -46 -153.5t-130 -124.5q117 -37 195 -141.5t78 -229.5q0 -207 -155 -321.5t-382 -114.5q-219 0 -379 124.5t-160 311.5zM303 376.5 q0 -145.5 94.5 -232.5t198.5 -87q113 0 203 86.5t90 233.5q0 135 -93.5 227t-199.5 92q-104 0 -198.5 -87t-94.5 -232.5zM401 1024q0 -102 59.5 -167.5t143.5 -65.5q102 0 151.5 77.5t49.5 175.5q0 109 -62.5 182.5t-144.5 73.5q-80 0 -138.5 -76.5t-58.5 -199.5z" />
<glyph unicode="9" horiz-adv-x="1220" d="M88 911q0 217 136 351.5t384 134.5q223 0 382 -184.5t159 -473.5q0 -147 -40 -287.5t-115.5 -256t-198.5 -186t-275 -70.5q-207 0 -309 87t-102 210q0 61 25.5 115.5t70.5 80.5q6 -176 101 -279.5t216 -103.5q180 0 277.5 160t103.5 430q-160 -186 -379 -186 q-195 0 -315.5 136t-120.5 322zM334 918q0 -125 64.5 -221.5t187.5 -96.5q186 0 313 182q-16 266 -104 384t-205 118q-119 -4 -187.5 -96t-68.5 -270z" />
<glyph unicode=":" horiz-adv-x="538" d="M115 57q0 61 50 94t101 33q49 0 100.5 -33t51.5 -94q0 -57 -51.5 -88.5t-100.5 -31.5q-51 0 -101 31.5t-50 88.5zM115 815q0 61 50 94t101 33q49 0 100.5 -33t51.5 -94q0 -57 -51.5 -89t-100.5 -32q-51 0 -101 32t-50 89z" />
<glyph unicode=";" horiz-adv-x="550" d="M115 68q0 55 54 85.5t107.5 30.5t102.5 -30.5t49 -85.5q0 -94 -66.5 -154.5t-173.5 -87.5q4 6 14.5 22.5t14.5 22.5t9 20.5t7.5 28.5t2.5 33q-45 10 -83 40t-38 75zM115 815q0 61 52 94t105 33q49 0 102.5 -34t53.5 -93q0 -57 -53 -89t-103 -32q-53 0 -105 32t-52 89z " />
<glyph unicode="&#x3c;" horiz-adv-x="788" d="M61 690l531 453l102 -234l-485 -213l489 -168l-92 -249z" />
<glyph unicode="=" horiz-adv-x="905" d="M127 647l641 -41l16 -151l-653 -27zM127 909l657 56l-16 -248l-631 43z" />
<glyph unicode="&#x3e;" horiz-adv-x="786" d="M90 528l488 168l-484 213l103 234l530 -453l-545 -411z" />
<glyph unicode="?" horiz-adv-x="1247" d="M78 1522l215 -312l-100 19q4 6 13 15t42 32.5t72.5 42t109.5 33t150 14.5q258 0 438 -103.5t180 -283.5q0 -119 -54 -191.5t-131 -106.5t-154 -65.5t-131 -98t-54 -173.5q0 -16 4 -61h-221q-4 20 -4 51q0 215 221 319q229 106 229 322q0 123 -89 190.5t-212 67.5 q-100 0 -174 -25.5t-129 -93t-75.5 -103.5t-66.5 -136q-8 -17 -12 -25zM403 57q0 61 50.5 94t101.5 33q49 0 100.5 -33t51.5 -94q0 -57 -51.5 -88.5t-100.5 -31.5q-51 0 -101.5 31.5t-50.5 88.5z" />
<glyph unicode="@" horiz-adv-x="1363" d="M66 467q0 145 45 264t113.5 191.5t157.5 122t171 69t160 19.5q76 0 151.5 -18.5t154.5 -64.5t138.5 -116t97 -182.5t37.5 -253.5q0 -117 -20.5 -207t-56 -142.5t-71.5 -86t-82 -46t-70.5 -16.5t-53.5 -4q-55 0 -95 28.5t-40 86.5q0 39 6 82q-80 -82 -213 -82 q-96 0 -144.5 49t-48.5 135t79 147.5t208 61.5q78 0 139 -27q-16 213 -139 213q-63 0 -120.5 -53t-98.5 -145l-43 319l78 -119q98 109 233 109q104 -4 170 -75t66 -194q0 -80 -32 -221t-32 -174q0 -51 43 -51q68 0 117 115.5t49 316.5q0 502 -399 502q-221 0 -351 -161 t-130 -404q0 -117 38.5 -206t96 -135t112 -68.5t97.5 -22.5q45 0 93 19t73 39l24 19q0 -72 -82 -129t-160 -57q-72 0 -149.5 31.5t-150 94t-119.5 174.5t-47 253zM563 297q0 -92 86 -92q100 0 180 123q4 41 5 67q-63 25 -132 25q-66 0 -102.5 -39t-36.5 -84z" />
<glyph unicode="A" horiz-adv-x="1310" d="M-104 123l294 29l84 282h-49l-84 107l170 18l181 604l-205 107l579 145l301 -1208l238 -35l-563 -240l192 244l-112 279l-516 -17l-105 -297l193 -254zM453 575l399 46l-205 507z" />
<glyph unicode="B" horiz-adv-x="1251" d="M-45 29l242 149l71 1057l-262 170l752 -12q172 0 308 -98.5t136 -266.5q0 -301 -321 -356q74 -27 126 -70t77.5 -92t35.5 -89t10 -75q0 -86 -31.5 -152.5t-81.5 -105.5t-119 -63.5t-135.5 -32.5t-140 -8t-667.5 45zM453 133q84 -14 159 -14q119 0 201 57t82 191 q0 92 -82 170.5t-256 78.5q-70 0 -104 -2v-481zM453 725q35 -2 98 -2q109 0 187.5 28.5t115.5 63.5t57.5 84t23.5 73.5t3 49.5q0 18 -3 40.5t-24.5 64.5t-59.5 74t-116 56.5t-184 26.5q-49 0 -98 -6v-553z" />
<glyph unicode="C" horiz-adv-x="1206" d="M63 664q0 172 53.5 314t140.5 232t195.5 139.5t221.5 49.5q223 0 350 -139l244 194l-279 -598l-24 291q-94 115 -246 115q-164 0 -272.5 -161t-108.5 -423t108.5 -430t264.5 -168q143 0 219 125t76 274q0 35 -2 53q126 -83 126 -208t-112.5 -236t-296.5 -111 q-125 0 -238.5 40t-210 119t-153 215t-56.5 313z" />
<glyph unicode="D" horiz-adv-x="1255" d="M-47 16l272 125l92 1033l-309 139q115 27 257.5 42t227.5 17l85 2q109 0 213 -39t197 -115.5t150.5 -212t57.5 -309.5q0 -156 -56.5 -280.5t-146.5 -202.5t-213 -130t-248 -72.5t-260 -20.5q-157 0 -319 24zM473 125q490 69 490 612q0 86 -18.5 168t-61.5 164t-126 132 t-196 50q-43 0 -88 -6v-1120z" />
<glyph unicode="E" horiz-adv-x="1187" d="M-27 -8l250 256l70 921l-301 148l1071 76l18 -469l-186 333l-457 -73l15 -473l104 14l207 274l14 -630l-180 258l-143 -21l12 -413l448 -41l168 419l17 -534z" />
<glyph unicode="F" horiz-adv-x="1079" d="M-23 1374l1090 39v-487l-160 342l-510 -101l19 -366h151l166 241v-608l-174 268l-137 -16l27 -500l294 -125l-763 -81l217 194l53 959z" />
<glyph unicode="G" horiz-adv-x="1259" d="M66 651q0 164 47 294t117.5 207t159.5 128t165 69.5t143 18.5q20 0 53 -4t114 -36t136 -87l228 172l-299 -539v281q-94 90 -242 90q-152 -6 -259 -169t-107 -417q0 -260 110.5 -416.5t278.5 -156.5q127 0 221 119l-35 258l-244 127l627 76l-164 -164l-35 -549l-90 170 q-158 -162 -370 -162q-98 0 -193.5 41t-177.5 121t-133 217t-51 311z" />
<glyph unicode="H" horiz-adv-x="1378" d="M-39 1401l696 -10l-194 -107l-27 -496l516 -16l13 416l-185 110l592 37l-225 -184l37 -1006l207 -137l-711 -4l252 168l16 471l-520 10l-22 -411l147 -148h-487l172 139l-60 1037z" />
<glyph unicode="I" horiz-adv-x="694" d="M-33 -25l244 203l61 969l-209 164l609 -37l-232 -187l29 -905l207 -145z" />
<glyph unicode="J" horiz-adv-x="1177" d="M2 365q0 117 72.5 205.5t183.5 88.5q47 0 102 -18q-51 -29 -84.5 -72t-48 -87t-18.5 -71.5t-4 -50.5q0 -135 70.5 -218t183.5 -83q141 0 224 118t83 335q0 281 -55 645l-267 158l783 57l-213 -162q2 -80 2 -217q0 -215 -10.5 -378.5t-21.5 -219.5l-11 -55 q-45 -162 -170 -276.5t-328 -114.5q-227 0 -350 125t-123 291z" />
<glyph unicode="K" horiz-adv-x="1390" d="M-45 -10l270 198l21 1049l-252 141l670 25l-250 -160l24 -639l426 680l-73 119l634 -39l-286 -96l-580 -711q68 -76 138.5 -134t121.5 -89t92 -51.5t63 -25.5l21 -5q22 -4 45 -4q80 0 173 48q120 62 178 130q-29 -184 -162 -307t-219 -129q-8 0 -22.5 2t-66 26.5 t-111.5 68.5t-159.5 145.5t-208.5 240.5l15 -321l245 -117z" />
<glyph unicode="L" horiz-adv-x="1159" d="M-31 0l254 221l60 967l-275 143l666 43l-211 -143l12 -1014l463 -57l180 338v-453z" />
<glyph unicode="M" horiz-adv-x="1642" d="M-25 -12l201 182l62 1044l-211 134l493 24l332 -938l254 928l557 -14l-250 -187l39 -973l201 -92l-609 -127l248 219l-164 793l-223 -885l-483 805l-131 -725l192 -162z" />
<glyph unicode="N" horiz-adv-x="1447" d="M-20 1309l653 108l389 -1005l119 817l-219 207l634 -99l-284 -82l-146 -1275l-647 997l-102 -774l278 -148l-657 -49l262 197l19 1001z" />
<glyph unicode="O" horiz-adv-x="1452" d="M61 668q0 319 199 530t498 211q264 0 449.5 -189.5t185.5 -513t-187.5 -515t-464 -191.5t-478.5 185.5t-202 482.5zM190 668q0 -221 128 -350.5t319 -129.5q199 0 343 134.5t144 365.5q0 233 -143 366.5t-330 133.5q-199 0 -330 -142.5t-131 -377.5z" />
<glyph unicode="P" horiz-adv-x="1232" d="M-31 14l248 148l70 1028l-299 182q168 25 413 25q131 0 239 -10.5t219.5 -42t186 -83t121.5 -139.5t47 -207q0 -106 -42 -192t-110.5 -140.5t-159.5 -90t-183.5 -50t-188.5 -14.5h-69v-289l252 -125h-744zM461 528q131 0 228 34t144.5 77t75 101.5t32.5 91t5 61.5 q0 35 -5 69.5t-30.5 93t-68.5 101.5t-132 75t-210 32h-39v-736z" />
<glyph unicode="Q" horiz-adv-x="1445" d="M57 696q0 205 103.5 375t257 260t313.5 90q281 0 468 -187t187 -507q0 -266 -121.5 -444.5t-324.5 -239.5q57 -147 139 -147q49 0 73 31.5t24 76.5q0 68 -37 88q63 0 101 -40t38 -103q0 -94 -80 -156.5t-170 -62.5q-113 0 -171 73.5t-99 208.5h-27q-279 0 -476.5 185.5 t-197.5 498.5zM184 668q0 -229 138 -361q39 61 104.5 97t110.5 41l45 6q119 0 186.5 -52.5t105.5 -148.5q111 61 177.5 173.5t66.5 264.5q0 233 -143.5 366.5t-329.5 133.5q-199 0 -330 -142.5t-131 -377.5zM371 266q113 -78 260 -78q25 0 69 5q-59 155 -174 157 q-94 0 -155 -84z" />
<glyph unicode="R" horiz-adv-x="1282" d="M-20 1317q466 26 741 26h20q70 0 145 -18t146.5 -57t116.5 -111t45 -164q0 -35 -9 -77t-53.5 -112.5t-118 -124.5t-222 -96t-347.5 -46q125 -94 199 -145.5t191.5 -110t197.5 -58.5q180 0 258 174q-27 -129 -68.5 -225t-86.5 -142t-79 -67.5t-57 -21.5q-78 0 -260 153.5 t-333 304.5l8 -247l211 -117l-635 -45l213 196l37 1006zM389 1200l10 -534q203 4 354.5 80.5t151.5 199.5q0 43 -7 75t-33.5 67.5t-74 59t-134.5 39t-205 15.5q-41 0 -62 -2z" />
<glyph unicode="S" horiz-adv-x="1202" d="M-57 -55l290 514q27 -152 122.5 -261.5t228.5 -109.5q109 0 180.5 61.5t71.5 145.5t-77 143.5t-185.5 102.5t-217 92t-185.5 140t-77 220q0 147 116 254t339 107q127 0 238.5 -42t181.5 -102l260 179l-299 -574l-23 301q-51 37 -130 60.5t-120 29.5t-53 6 q-125 0 -183.5 -49t-58.5 -121q0 -117 91.5 -175t341.5 -136q141 -45 233 -143.5t92 -227.5q0 -111 -46 -194.5t-119.5 -127.5t-150.5 -65.5t-151 -21.5q-246 0 -450 172z" />
<glyph unicode="T" horiz-adv-x="1208" d="M45 1343l1147 17l-78 -586l-115 428l-307 -35l41 -999l248 -127l-799 -76l291 211l51 981l-317 12l-123 -364z" />
<glyph unicode="U" horiz-adv-x="1269" d="M-41 1311l700 73l-219 -163q-2 -41 -2 -123v-26v-119q0 -42 2 -125t5.5 -133t9.5 -126.5t15 -126t22.5 -110t32 -98t42 -72.5t55 -51.5t68.5 -16.5q135 0 212 147.5t77 454.5q0 309 -39 500l-203 96l551 70l-203 -164q4 -111 5 -162v-15q0 -151 -1.5 -227.5t-9.5 -206.5 t-23.5 -199t-46 -159t-76.5 -133t-114.5 -75.5t-159.5 -32.5q-72 0 -132 25.5t-105 64.5t-82 107.5t-61.5 130t-45 160.5t-32 169t-20.5 184.5t-12 181t-9 181.5z" />
<glyph unicode="V" horiz-adv-x="1298" d="M-57 1251l606 160l-146 -141l252 -1057l326 956l-154 224l533 -142l-238 -86l-297 -1007l170 -117l-657 -55l178 207l-387 968z" />
<glyph unicode="W" horiz-adv-x="1589" d="M-76 1292l707 119l-201 -147l123 -949l170 680l-135 97l522 67l-174 -139l125 -635l168 832l-191 149l580 -41l-252 -156l-158 -956l191 -156h-572l103 103l-119 774l-160 -817l166 -131l-577 30l194 150l-282 1014z" />
<glyph unicode="X" horiz-adv-x="1351" d="M-39 119l303 86l299 452l-368 502l-197 45l625 189l-148 -185l209 -366l234 352l-187 172l649 -119l-215 -84l-385 -491l283 -496l303 -53l-631 -174l180 227l-251 344l-287 -364l168 -174z" />
<glyph unicode="Y" horiz-adv-x="1273" d="M-78 1239l686 164l-188 -170l225 -582l268 566l-165 172l647 -109l-254 -119l-430 -626l24 -363l199 -145l-680 -45l225 149l76 408l-391 614z" />
<glyph unicode="Z" horiz-adv-x="1183" d="M55 29l670 1136l-489 -114l-121 -242l-29 600l107 -127l931 45l-835 -1184l631 62l204 330l-75 -553z" />
<glyph unicode="[" horiz-adv-x="620" d="M131 1475l539 16l-248 -217l-64 -1247l238 -146l-391 -26z" />
<glyph unicode="\" horiz-adv-x="1003" d="M47 1319l252 59l659 -1364l-88 -49z" />
<glyph unicode="]" horiz-adv-x="626" d="M-37 1491l539 -16l-74 -1620l-391 26l235 146l-63 1247z" />
<glyph unicode="^" horiz-adv-x="706" d="M90 967l270 475l269 -451l-275 152z" />
<glyph unicode="_" horiz-adv-x="913" d="M94 -201h694v-176h-694v176z" />
<glyph unicode="`" horiz-adv-x="385" d="M0 1401l240 74l145 -371z" />
<glyph unicode="a" horiz-adv-x="1046" d="M53 252q0 129 121 223t320 94q139 0 229 -47q-31 356 -229 357q-106 0 -196.5 -85t-137.5 -233l-84 490l127 -195q143 176 368 176q160 -8 259.5 -114.5t99.5 -294.5q0 -242 -84 -473l213 -150l-377 16l23 123q-117 -147 -320 -162q-23 -2 -44 -2q-132 0 -204 65 q-84 75 -84 212zM283 256q0 -156 147 -156q88 0 165 58.5t128 144.5q4 74 4 105v12q-96 37 -221 37q-106 -4 -164.5 -64.5t-58.5 -136.5z" />
<glyph unicode="b" horiz-adv-x="1056" d="M-145 1249l530 60q-37 -266 -57 -465q121 182 309 182q356 0 356 -432q0 -279 -120 -448t-341 -169q-104 0 -178.5 60.5t-107.5 152.5l-101 -233l-39 1194zM303 498q0 -395 211 -396q90 0 170 130t80 331q0 143 -63.5 226t-153.5 83q-80 0 -142.5 -73.5t-97.5 -188.5z " />
<glyph unicode="c" horiz-adv-x="987" d="M55 461q0 121 35 218t88 155.5t121 97.5t125 53t108 14q170 0 263 -135l202 205l-166 -541q-10 94 -36.5 165t-54 103.5t-62.5 51t-50.5 21.5t-27.5 3q-145 0 -230 -111.5t-85 -309.5q0 -182 80.5 -288t191.5 -106q121 -1 202 99q70 86 70 191q0 17 -2 34q76 -66 76 -150 q0 -129 -111.5 -211.5t-246.5 -82.5q-43 0 -93.5 8t-124 40.5t-131 85t-99.5 154t-42 236.5z" />
<glyph unicode="d" horiz-adv-x="1089" d="M57 444q0 268 118 414t302 146q182 0 287 -138l4 236l-244 92l494 88l-129 -1157l221 -82l-362 -70l4 195q-123 -209 -312 -209q-162 4 -272.5 134t-110.5 351zM285 422q0 -147 49 -241.5t137 -94.5q10 0 27.5 3t55.5 18.5t71.5 42t70.5 82t60 128.5l6 326 q-33 80 -90.5 132t-128.5 52q-131 0 -194.5 -122.5t-63.5 -325.5z" />
<glyph unicode="e" horiz-adv-x="983" d="M55 510q0 236 130 378q118 129 320 129q20 0 40 -1q160 -10 269.5 -148.5t123.5 -324.5l-649 -176q31 -127 95.5 -213t162.5 -86q131 0 203 98q58 79 59 163q0 21 -4 42q94 -35 94 -156q0 -98 -108.5 -173t-268.5 -75q-213 0 -340 156t-127 387zM270 528q0 -37 2 -55 l439 160q-41 135 -102.5 203.5t-123.5 68.5q-113 0 -164 -111.5t-51 -265.5z" />
<glyph unicode="f" horiz-adv-x="690" d="M14 762l138 219q35 434 340 434q66 0 129 -23.5t98 -66.5l162 119l-158 -400q-2 70 -21.5 121.5t-43 77t-53.5 40.5t-44 18.5t-22 3.5q-90 -4 -129 -98.5t-52 -274.5h365l-74 -92l-295 -37v-29q0 -127 -7 -337t-7 -296l231 -129h-538l180 123q-37 346 -53 643z" />
<glyph unicode="g" horiz-adv-x="1083" d="M59 444q0 270 119 418q114 142 287 142h14q150 -6 246 -127q-2 28 -10 104l405 49l-190 -166q22 -167 22 -322v-14q0 -137 -8 -246.5t-27.5 -214t-54.5 -181t-86 -135t-123.5 -88.5t-167 -30t-204.5 84l-117 -131l-27 434q147 -264 332 -264q47 0 76.5 8.5t69.5 41 t68 112.5t42 209q-115 -168 -283 -168q-162 4 -272.5 134t-110.5 351zM287 422q0 -147 49 -241.5t137 -94.5q8 0 24.5 2t50.5 15.5t65.5 35t67.5 67.5t60 105q2 48 2 154q0 113 -6 244q-81 161 -191 161h-1q-131 0 -194.5 -122.5t-63.5 -325.5z" />
<glyph unicode="h" horiz-adv-x="1048" d="M-41 12l154 125l71 1114l-223 111l354 59l4 -563q59 86 141.5 124t139.5 38q178 0 260 -119t82 -321q0 -197 -98 -445l198 -110l-518 -54l219 199q27 141 27 260q0 53 -9 110.5t-34 125t-77 111.5t-126 44q-121 0 -205 -96l7 -602l133 -111h-500z" />
<glyph unicode="i" horiz-adv-x="512" d="M-29 924l430 73l-77 -802l215 -134l-506 -71l157 123l-34 690zM111 1239q0 61 44 104t107 43q61 0 105.5 -43t44.5 -104q0 -59 -45 -103t-105 -44q-63 0 -107 44t-44 103z" />
<glyph unicode="j" horiz-adv-x="497" d="M-340 -45q102 -154 256 -154q66 0 117 50.5t80.5 143.5t48 189.5t26 223.5t10.5 206q2 78 2 175q0 8 0.5 11t0.5 9v10l-258 111l397 78q51 -246 51 -572q0 -150 -21.5 -275.5t-68.5 -237t-138 -174t-216 -62.5q-70 0 -123 20l-47 -176zM104 1233q0 55 39 95t95 40 q57 0 96 -40t39 -95q0 -57 -39 -97t-96 -40q-55 0 -94.5 40t-39.5 97z" />
<glyph unicode="k" horiz-adv-x="974" d="M-41 12l154 125l71 1114l-223 111l354 59l7 -905l280 358l-115 127l533 -112l-207 -72l-426 -405q59 -74 118.5 -123t101.5 -67.5t75 -27t49 -5.5l17 4q12 0 33.5 4t82 45t115.5 114q-16 -104 -51 -184t-74 -119t-70.5 -58.5t-54.5 -19.5q-6 0 -19.5 3.5t-55.5 22.5 t-87 52t-111.5 101.5t-131.5 160.5l2 -192l133 -111h-500z" />
<glyph unicode="l" horiz-adv-x="487" d="M-96 1317l506 67l-123 -1259l200 -80l-501 -49l180 141l-31 1080z" />
<glyph unicode="m" horiz-adv-x="1355" d="M-14 967l340 -23v-102q45 61 104 95t96 38l37 4q150 0 221 -109q92 109 213 109q115 0 191 -100.5t76 -262.5q0 -248 -97 -483l142 -63l-496 -93l219 175q25 172 25 350q0 307 -148 307q-43 0 -86 -31q6 -25 6 -51q0 -215 -106 -483l141 -111h-403l135 109q22 163 22 357 v17q0 217 -108 218q-100 0 -184 -144v-545l168 -120l-496 -35l131 147l68 678z" />
<glyph unicode="n" horiz-adv-x="1083" d="M-18 967l342 34v-151q137 190 307 190q168 0 255 -116.5t87 -302.5q0 -272 -78 -471l197 -64l-521 -102l177 133q36 128 36 274v8q0 72 -8 137.5t-28.5 143.5t-69.5 124t-121 46q-127 0 -233 -154v-553l165 -118l-495 -35l131 145l70 727z" />
<glyph unicode="o" horiz-adv-x="1064" d="M55 502q0 225 134.5 373.5t342.5 148.5q201 0 330 -142.5t144 -373.5q1 -23 1 -45q0 -209 -120 -343q-133 -148 -342 -149q-205 0 -347.5 143.5t-142.5 387.5zM301 485q0 -172 89 -277.5t216 -105.5q125 0 207 102.5t82 266.5q0 166 -84 281.5t-211 115.5 q-121 0 -210 -105.5t-89 -277.5z" />
<glyph unicode="p" horiz-adv-x="1069" d="M-41 934l414 70l-6 -130q106 129 256 130q162 -4 272.5 -134.5t110.5 -351.5q0 -268 -118 -413.5t-302 -145.5q-152 0 -254 98l-10 -225l200 -108l-491 -84l151 151l-41 1071zM338 207q76 -115 182 -115q131 0 194.5 123t63.5 326q0 147 -49 241.5t-137 94.5 q-27 0 -58.5 -9.5t-84 -50.5t-91.5 -112z" />
<glyph unicode="q" horiz-adv-x="1054" d="M59 444q0 268 118 414t302 146q152 0 258 -103l2 115l375 -64l-237 -86l51 -1083l182 -62l-395 -98l8 500q-115 -164 -281 -164q-162 4 -272.5 134t-110.5 351zM287 422q0 -147 49 -241.5t137 -94.5q31 0 64.5 10t91 62.5t98.5 142.5l6 440q-78 129 -188 129 q-131 0 -194.5 -122.5t-63.5 -325.5z" />
<glyph unicode="r" horiz-adv-x="849" d="M-20 922l344 65l4 -125q41 49 93 84t83 46l31 12q25 6 63 12q9 1 20 1q38 -1 110 -15q94 -20 153 -80l-131 -240q-12 55 -45 91t-70 47t-72 14.5t-57 -0.5l-23 -5q-70 -18 -151 -122l18 -580l180 -90l-530 -47l137 139l56 696z" />
<glyph unicode="s" horiz-adv-x="952" d="M47 -117l47 496q68 -143 181.5 -232.5t244.5 -89.5q80 0 127 34t47 95q0 49 -46 84t-113.5 53.5t-148.5 47t-148.5 62.5t-113.5 104.5t-46 169.5q0 78 28.5 137t70.5 91t96.5 52.5t95 25.5t77.5 5q168 0 285 -94l164 202l-74 -499q-27 113 -121 197.5t-225 84.5 q-84 0 -138 -37.5t-54 -115.5q0 -70 63.5 -110t153.5 -61.5t180 -50t153.5 -96t63.5 -178.5q0 -104 -56.5 -177t-132 -102.5t-161.5 -29.5q-195 0 -348 135z" />
<glyph unicode="t" horiz-adv-x="813" d="M20 786l488 533q-55 -176 -94 -330l389 -33l-51 -120l-377 -27q-16 -86 -26.5 -162t-12.5 -109l-2 -34q0 -434 209 -434q92 0 136 67.5t44 159.5q0 39 -6 72q88 -45 88 -176q0 -113 -70.5 -177.5t-181.5 -64.5q-45 0 -93 9t-109.5 41t-107.5 83t-79 142t-33 212 q0 154 62 359z" />
<glyph unicode="u" horiz-adv-x="1093" d="M12 862l396 135q-43 -119 -69 -247.5t-30 -197.5l-4 -69q0 -180 47 -270t127 -90q82 0 146.5 65.5t100.5 173t54.5 224t20.5 237.5l-217 150h338l39 -860l180 -84l-410 -76l19 293q-137 -295 -359 -295q-143 0 -222 95t-79 241q0 274 133 526z" />
<glyph unicode="v" horiz-adv-x="1015" d="M-33 913l527 60l-121 -119l149 -684l242 637l-150 131l447 -20l-187 -109l-219 -723l154 -106l-600 14l186 127l-297 715z" />
<glyph unicode="w" horiz-adv-x="1323" d="M-45 905l547 111l-121 -139l43 -625l264 643l207 -602l129 592l-201 106l451 -8l-150 -123l-69 -721l139 -92l-434 -51l94 106l-221 406l-162 -404l98 -86l-403 -41l141 129l-174 725z" />
<glyph unicode="x" horiz-adv-x="1103" d="M-31 23l256 145q117 137 232 297q-154 182 -328 409l-158 66l506 76l-92 -103q88 -154 178 -292q86 133 170 286l-115 94l525 -71l-199 -82q-156 -211 -287 -367q121 -176 246 -329l219 -60l-413 -127l92 141q-125 117 -250 254q-114 -126 -234 -233l68 -127z" />
<glyph unicode="y" horiz-adv-x="1046" d="M-37 942l463 66l-86 -117q49 -381 293 -789q102 291 108 760l-149 146l448 -33l-151 -101q18 -145 20 -296v-24q0 -140 -21 -296q-22 -170 -74 -299t-157.5 -215t-253.5 -86q-109 0 -235 55l-74 -147l-102 393q80 -104 168 -143t155 -39q154 0 260 194q-410 428 -448 883 z" />
<glyph unicode="z" horiz-adv-x="927" d="M8 -14l641 811l-491 -41l-68 -135v505l103 -174l694 -14l-506 -799l313 -67l189 202l-56 -458l-82 155z" />
<glyph unicode="{" horiz-adv-x="600" d="M11 653q8 4 19 11.5t42.5 28t55.5 42t43 51t19 56.5q0 12 -18 142t-18 218q-1 305 237 305q45 0 92 -12t83 -28l36 -15q-16 -2 -48 -13.5t-72 -35t-68.5 -66.5t-28.5 -96q0 -39 8 -106.5t8 -94.5q0 -90 -18 -161.5t-44 -111.5t-55.5 -65.5t-48 -34t-26.5 -8.5 q98 -12 140 -78.5t42 -193.5q0 -37 -13 -132t-13 -155q0 -82 56 -136t113 -68l56 -15q-113 -76 -232 -76q-111 0 -166 71t-55 161q0 59 26.5 188t26.5 189q0 186 -140 231q-21 7 -39 8z" />
<glyph unicode="|" horiz-adv-x="499" d="M150 1593l223 -28l-68 -1721h-121z" />
<glyph unicode="}" horiz-adv-x="602" d="M2 1452l36 15q36 15 83 27.5t92 12.5q238 0 238 -305q0 -88 -18.5 -218t-18.5 -142q0 -41 45 -88t90 -74l45 -27h-4q-4 0 -15.5 -3t-24.5 -7t-28.5 -12t-30 -19.5t-28.5 -31t-25.5 -42t-17.5 -55t-6 -69.5q0 -59 26.5 -188.5t26.5 -188.5q0 -90 -55.5 -161t-165.5 -71 q-53 0 -110.5 19.5t-89.5 38.5l-32 18q8 2 23.5 5t54.5 19.5t68.5 38t54.5 63.5t25 93q0 59 -13.5 154.5t-13.5 132.5q0 127 42 193.5t140 78.5q-8 0 -26.5 8.5t-48 34t-55 65.5t-44 111.5t-18.5 161.5q0 27 8 94.5t8 106.5q0 53 -28.5 96t-68.5 66.5t-72 35t-48 13.5z" />
<glyph unicode="~" horiz-adv-x="974" d="M106 639q55 94 125 141t129 47q49 0 151.5 -48t123.5 -48q41 0 62.5 3t56 20.5t69.5 52.5l58 -84q-43 -96 -117 -146.5t-131 -50.5q-43 0 -143.5 46t-143.5 46q-96 0 -176 -65z" />
<glyph unicode="&#xa2;" horiz-adv-x="874" d="M70 469q0 109 33.5 191.5t87 130t107.5 72t110 32.5l-56 479l178 -22l-55 -455q119 -10 187 -106l161 163l-133 -432q-8 76 -28.5 132.5t-43 82t-50 41t-40 17.5t-22.5 2q-117 0 -184.5 -89.5t-67.5 -246.5q0 -145 64.5 -230.5t152.5 -85.5q96 0 161.5 79t55.5 179 q59 -55 60 -118q0 -100 -84 -166t-191 -70l35 -428l-146 33l48 397q-41 6 -81 18.5t-89.5 43t-85 73.5t-60 117t-24.5 166z" />
<glyph unicode="&#xa3;" horiz-adv-x="1030" d="M41 133l195 113q127 190 79 336l-133 10l8 90l91 8q-70 248 0.5 410t236.5 162q154 0 236 -111l125 78l-158 -402l-21 238q-63 88 -147 88q-113 0 -147.5 -123t36.5 -325l148 12v-152l-96 6q37 -139 -7 -299l347 -43l106 170l-20 -268z" />
<glyph unicode="&#xa5;" horiz-adv-x="1273" d="M57 1130l549 132l-151 -138l180 -465l213 453l-131 137l518 -86l-203 -96l-284 -414l155 11l-14 -140l-199 8l4 -63l195 -8l14 -84l-203 -6l7 -95l159 -116l-544 -37l182 119l22 123l-147 -5l-2 123l168 -8l12 64l-172 8l-8 84l141 8l-270 422z" />
<glyph unicode="&#xa9;" horiz-adv-x="1247" d="M90 621q0 248 155.5 412.5t391.5 164.5q211 0 365.5 -149.5t154.5 -399.5t-156.5 -400.5t-377.5 -150.5q-217 0 -375 144.5t-158 378.5zM174 631q0 -207 120 -329t300 -122q186 0 321.5 127t135.5 344q0 221 -150 357l-127 -273l-14 146q-47 57 -121 57q-82 0 -136 -81 t-54 -212t54 -215t132 -84q72 0 109.5 62.5t37.5 138.5q0 16 -2 26q63 -43 64 -106q0 -61 -56.5 -116.5t-148.5 -55.5q-135 0 -231.5 86t-96.5 258q0 168 92.5 267.5t212.5 99.5q111 0 175 -70l100 80q-123 104 -285 104q-186 0 -309 -133t-123 -356z" />
<glyph unicode="&#xad;" d="M111 616l10 150l657 55v-248z" />
<glyph unicode="&#xae;" horiz-adv-x="874" d="M80 979q0 170 105.5 281.5t267.5 111.5q143 0 248.5 -101.5t105.5 -271.5t-106.5 -272t-258.5 -102q-147 0 -254.5 97t-107.5 257zM156 985q0 -123 65 -201l68 64l30 319l-94 37q-69 -82 -69 -219zM223 782q76 -86 201 -86q119 0 206 82t87 221.5t-86 219t-199 79.5 q-125 0 -203 -90q158 8 250 9q53 0 99.5 -28t46.5 -85q0 -12 -3.5 -24.5t-17.5 -35t-37.5 -40t-72 -30.5t-111.5 -16q133 -100 190.5 -100t81.5 55q-10 -53 -30.5 -89t-36 -46t-25.5 -10q-45 0 -190 145l2 -77l67 -39zM367 1171l6 -172q63 2 111 27t48 63.5t-27.5 60 t-117.5 21.5h-20z" />
<glyph unicode="&#xb4;" horiz-adv-x="368" d="M0 1104l147 371l222 -58z" />
<glyph unicode="&#x2000;" horiz-adv-x="796" />
<glyph unicode="&#x2001;" horiz-adv-x="1593" />
<glyph unicode="&#x2002;" horiz-adv-x="796" />
<glyph unicode="&#x2003;" horiz-adv-x="1593" />
<glyph unicode="&#x2004;" horiz-adv-x="531" />
<glyph unicode="&#x2005;" horiz-adv-x="398" />
<glyph unicode="&#x2006;" horiz-adv-x="265" />
<glyph unicode="&#x2007;" horiz-adv-x="265" />
<glyph unicode="&#x2008;" horiz-adv-x="199" />
<glyph unicode="&#x2009;" horiz-adv-x="318" />
<glyph unicode="&#x200a;" horiz-adv-x="88" />
<glyph unicode="&#x2010;" d="M111 616l10 150l657 55v-248z" />
<glyph unicode="&#x2011;" d="M111 616l10 150l657 55v-248z" />
<glyph unicode="&#x2012;" d="M111 616l10 150l657 55v-248z" />
<glyph unicode="&#x2013;" horiz-adv-x="1042" d="M111 616l10 150l811 55v-248z" />
<glyph unicode="&#x2014;" horiz-adv-x="1349" d="M111 616l10 150l1118 55v-248z" />
<glyph unicode="&#x2018;" horiz-adv-x="387" d="M78 1167q0 143 194 195l-11 -16q-7 -11 -9 -15t-7 -13t-6 -16.5t-3.5 -18.5t-2.5 -23q37 -8 68 -32t31 -61q0 -45 -43 -68.5t-88 -23.5q-43 0 -83 23.5t-40 68.5z" />
<glyph unicode="&#x2019;" horiz-adv-x="372" d="M74 1270q0 45 43 68.5t88 23.5q43 0 83 -23.5t40 -68.5q0 -143 -195 -195q4 6 11.5 16.5t9.5 14.5t7 13t6 16.5t3 18.5t2 24q-37 8 -67.5 31.5t-30.5 60.5z" />
<glyph unicode="&#x201c;" horiz-adv-x="684" d="M80 1161q0 145 192 195q-4 -6 -11 -18.5t-10 -18.5t-8 -16.5t-6 -21.5t-1 -28q37 -8 66.5 -31.5t29.5 -60.5q0 -45 -43 -68.5t-86 -23.5q-45 0 -84 23.5t-39 68.5zM375 1161q0 143 194 195l-11 -16q-7 -11 -9 -15t-7 -13t-6 -16.5t-3.5 -18.5t-2.5 -24q37 -8 68 -31.5 t31 -60.5q0 -45 -43 -68.5t-88 -23.5q-43 0 -83 23.5t-40 68.5z" />
<glyph unicode="&#x201d;" horiz-adv-x="667" d="M72 1264q0 45 43 68.5t88 23.5q43 0 83 -23.5t40 -68.5q0 -143 -195 -195q4 6 11.5 16.5t9.5 14.5t7 13t6 16.5t3 18.5t2 23q-37 8 -67.5 32t-30.5 61zM369 1264q0 45 43 68.5t86 23.5q45 0 84 -23.5t39 -68.5q0 -145 -193 -195q4 6 11 18.5t10.5 18.5t8.5 16.5t6 21.5 t1 27q-37 8 -66.5 32t-29.5 61z" />
<glyph unicode="&#x2022;" horiz-adv-x="684" d="M150 698q0 78 63 120t131 42q63 0 129 -42t66 -120q0 -76 -65.5 -115.5t-129.5 -39.5q-68 0 -131 40t-63 115z" />
<glyph unicode="&#x2026;" horiz-adv-x="1363" d="M68 57q0 61 50 94t101 33q49 0 100.5 -33t51.5 -94q0 -57 -51.5 -88.5t-100.5 -31.5q-51 0 -101 31.5t-50 88.5zM522 57q0 61 50.5 94t101.5 33q49 0 100 -33t51 -94q0 -57 -51 -88.5t-100 -31.5q-51 0 -101.5 31.5t-50.5 88.5zM977 57q0 61 50 94t101 33q49 0 100.5 -33 t51.5 -94q0 -57 -51 -88.5t-101 -31.5q-51 0 -101 31.5t-50 88.5z" />
<glyph unicode="&#x202f;" horiz-adv-x="318" />
<glyph unicode="&#x205f;" horiz-adv-x="398" />
<glyph unicode="&#x20ac;" horiz-adv-x="1216" d="M57 537l33 125l113 -7v19v45l-82 4l16 86l78 4q37 209 174 329t301 120q180 0 281 -111l194 156l-223 -480l-20 234q-76 92 -195 92q-109 0 -188.5 -88t-106.5 -242l334 17l-61 -140l-283 11v-25v-39l266 -10l-10 -84l-244 -6q27 -154 105.5 -247t181.5 -93 q115 0 175 100.5t60 218.5q0 29 -2 43q102 -70 103 -170q0 -98 -90 -186t-238 -88q-186 0 -331.5 104.5t-182.5 311.5z" />
<glyph unicode="&#x2122;" horiz-adv-x="1382" d="M143 1333l459 6l-31 -233l-47 172l-123 -14l17 -402l100 -49l-319 -31l114 84l21 391l-127 7l-47 -146zM621 791l81 73l23 418l-84 53l199 11l131 -375l102 370l223 -6l-100 -75l14 -390l82 -34l-243 -52l98 88l-66 316l-88 -352l-194 319l-54 -289l78 -63z" />
<glyph unicode="&#xe000;" horiz-adv-x="1014" d="M0 1015h1015v-1015h-1015v1015z" />
</font>
</defs>
</svg>
